<?xml version="1.0" standalone="no"?>
<!DOCTYPE svg PUBLIC "-//W3C//DTD SVG 20010904//EN"
 "http://www.w3.org/TR/2001/REC-SVG-20010904/DTD/svg10.dtd">
<svg version="1.0" xmlns="http://www.w3.org/2000/svg"
 width="700.000000pt" height="700.000000pt" viewBox="0 0 700.000000 700.000000"
 preserveAspectRatio="xMidYMid meet">
<metadata>
Created by potrace 1.14, written by Peter Selinger 2001-2017
</metadata>
<g transform="translate(0.000000,700.000000) scale(0.100000,-0.100000)"
fill="#000000" stroke="none">
<path d="M3316 5083 c12 -259 15 -232 -29 -295 -69 -103 -121 -230 -135 -333
-12 -89 -5 -275 12 -315 5 -12 -11 -24 -61 -49 -314 -154 -527 -436 -588 -777
-14 -83 -17 -285 -4 -344 4 -19 10 -49 13 -66 3 -18 17 -64 30 -104 l25 -73
-24 -46 c-228 -442 -729 -685 -1225 -594 -438 79 -791 410 -899 843 -136 540
148 1099 668 1319 255 108 571 115 831 20 68 -25 189 -86 212 -106 64 -57 265
-53 338 8 l25 21 -55 50 c-30 28 -98 79 -150 114 -486 324 -1143 300 -1610
-60 -299 -230 -493 -571 -535 -941 -8 -70 -8 -276 0 -320 29 -162 40 -207 66
-283 96 -273 243 -472 496 -672 100 -79 360 -200 487 -226 175 -36 361 -48
479 -32 34 5 76 10 92 13 205 28 485 156 655 299 91 78 217 219 281 316 l16
24 59 -63 c32 -34 66 -82 75 -106 41 -109 175 -268 292 -347 115 -78 263 -131
401 -144 34 -3 255 -5 491 -5 463 -1 479 1 543 52 33 26 62 78 62 110 0 29
-25 84 -49 108 -45 45 -107 63 -222 64 -68 0 -69 1 -56 21 83 126 127 233 147
356 7 46 27 107 51 156 60 128 104 301 102 407 0 18 5 27 16 28 9 0 77 2 151
3 149 4 220 15 279 45 84 43 49 105 -77 135 -50 13 -117 18 -226 19 l-155 2
-17 70 c-25 103 -101 286 -126 301 -5 3 19 32 52 65 33 33 78 86 99 118 37 54
104 181 96 181 -2 0 1 13 6 30 10 26 14 29 45 25 37 -4 94 -13 137 -21 15 -3
27 -1 27 4 0 10 -38 20 -115 28 -62 7 -75 11 -75 24 0 6 38 10 99 10 55 0 102
4 105 8 12 20 -15 27 -99 28 -89 0 -90 0 -87 24 1 13 4 26 6 28 3 2 35 6 73 8
78 6 93 9 93 23 0 6 -6 9 -12 6 -7 -2 -45 -6 -84 -10 l-72 -6 0 43 c2 188 -54
360 -166 508 -22 30 -44 59 -48 65 -3 5 0 33 7 60 7 28 25 94 39 147 14 54 26
103 26 108 0 12 -1 12 -238 -51 -125 -34 -188 -47 -200 -41 -51 27 -278 44
-352 27 -14 -3 -38 -8 -55 -11 -37 -6 -113 -31 -141 -45 -18 -9 -44 1 -165 63
-79 40 -147 75 -151 76 -5 2 -6 -54 -2 -125z"/>
<path d="M6764 4408 c-5 -7 -18 -29 -28 -48 -44 -82 -94 -149 -160 -216 -128
-127 -249 -182 -423 -192 -98 -5 -103 -4 -103 15 0 17 -6 19 -52 18 -41 -1
-54 -5 -56 -18 -4 -22 -52 -23 -52 -2 0 17 1 17 -58 19 -33 1 -46 -3 -53 -16
-12 -23 -45 -23 -51 0 -4 14 -15 18 -59 17 -41 0 -54 -4 -54 -15 0 -13 -37
-15 -240 -18 -221 -2 -243 -1 -275 17 -19 10 -54 25 -77 32 -31 8 -43 18 -43
31 0 16 -9 18 -85 18 l-85 0 0 -200 0 -200 85 0 c77 0 85 2 85 19 0 14 14 23
52 36 29 9 61 23 72 31 16 11 59 14 183 14 l162 0 -1 -92 c-2 -142 31 -217
121 -275 48 -32 49 -33 45 -75 l-4 -43 47 0 c62 0 70 7 68 53 -2 36 0 39 24
37 24 -1 26 -5 25 -43 -1 -45 -1 -44 61 -44 54 0 55 0 53 35 -1 52 1 57 25 53
18 -2 23 -11 27 -47 4 -36 8 -44 25 -43 11 1 35 2 53 3 31 1 32 2 32 46 0 41
3 47 38 69 63 40 107 101 119 163 4 21 6 75 6 121 -2 61 1 82 11 82 31 0 146
-45 206 -80 67 -39 178 -140 221 -199 13 -19 44 -71 69 -115 39 -69 50 -81 75
-84 56 -7 55 -17 55 578 0 411 -3 549 -12 558 -16 16 -63 15 -74 0z m-1151
-816 c0 -86 -1 -163 -2 -170 -2 -25 -56 25 -86 79 -32 59 -45 172 -26 222 10
25 15 27 63 27 l53 0 -2 -158z m162 -14 l0 -173 -25 0 -24 0 -1 165 c-1 91 1
168 3 173 2 4 13 7 25 7 23 0 23 -1 22 -172z m165 -4 l0 -175 -27 3 -26 3 1
140 c1 222 -1 205 27 205 l25 0 0 -176z m217 149 c14 -52 8 -149 -12 -194 -18
-43 -71 -109 -87 -109 -4 0 -8 74 -8 165 l0 165 50 0 c46 0 50 -2 57 -27z"/>
<path d="M5613 4068 c-2 -15 7 -18 52 -18 30 0 56 4 59 8 10 17 -11 27 -60 27
-41 1 -50 -3 -51 -17z"/>
<path d="M5780 4068 c0 -15 9 -18 56 -18 47 0 55 3 52 17 -5 26 -108 26 -108
1z"/>
<path d="M5958 4082 c-10 -2 -18 -10 -18 -18 0 -10 14 -14 55 -14 42 0 55 3
55 15 0 8 -3 15 -7 16 -33 4 -71 4 -85 1z"/>
</g>
</svg>
