<?xml version="1.0" encoding="utf-8"?>
<!-- Generator: Adobe Illustrator 28.1.0, SVG Export Plug-In . SVG Version: 6.00 Build 0)  -->
<svg version="1.1" xmlns="http://www.w3.org/2000/svg" xmlns:xlink="http://www.w3.org/1999/xlink" x="0px" y="0px"
	 viewBox="0 0 1920 1080" style="enable-background:new 0 0 1920 1080;" xml:space="preserve">
<style type="text/css">
	.st0{opacity:0.8;fill:#191C19;}
	.st1{opacity:0.8;fill:none;stroke:#191C19;stroke-miterlimit:10;}
	.st2{fill:#191C19;}
	.st3{fill:#E6E2C7;}
	.st4{opacity:0.9;}
	.st5{fill:none;stroke:#FFFFFF;stroke-miterlimit:10;}
	.st6{fill:none;stroke:#FFFFFF;stroke-width:0.9869;stroke-miterlimit:10;}
	.st7{fill:none;stroke:#FFFFFF;stroke-width:0.8224;stroke-miterlimit:10;}
	.st8{fill:none;stroke:#FFFFFF;stroke-width:0.8117;stroke-miterlimit:10;}
	.st9{fill:none;stroke:#FFFFFF;stroke-width:0.8244;stroke-miterlimit:10;}
	.st10{fill:none;stroke:#FFFFFF;stroke-width:0.8136;stroke-miterlimit:10;}
	.st11{fill:none;stroke:#404040;stroke-miterlimit:10;}
	.st12{fill:none;stroke:#404040;stroke-width:1.0416;stroke-miterlimit:10;}
	.st13{fill:none;stroke:#404040;stroke-width:1.028;stroke-miterlimit:10;}
	.st14{fill:#9D8963;}
</style>
<g id="Layer_1">
	<path class="st0" d="M319.7,342.7h-190c-2.8,0-5,2.2-5,5v95h200v-95C324.7,344.9,322.5,342.7,319.7,342.7z"/>
	<path class="st1" d="M565.8,673.5h-190c-2.8,0-5,2.2-5,5v95h200v-95C570.8,675.8,568.5,673.5,565.8,673.5z"/>
</g>
<g id="Layer_2">
	<g>
		<rect x="124.5" y="423.1" class="st2" width="200.2" height="19.5"/>
		<rect x="134.8" y="427.2" class="st3" width="6.2" height="14.4"/>
		<rect x="126.5" y="427.2" class="st3" width="6.2" height="14.4"/>
		<rect x="143" y="427.2" class="st3" width="6.2" height="14.4"/>
		<rect x="151.3" y="427.2" class="st3" width="6.2" height="14.4"/>
		<rect x="159.5" y="427.2" class="st3" width="6.2" height="14.4"/>
		<rect x="167.8" y="427.2" class="st3" width="6.2" height="14.4"/>
		<rect x="176" y="427.2" class="st3" width="6.2" height="14.4"/>
		<rect x="184.3" y="427.2" class="st3" width="6.2" height="14.4"/>
		<rect x="192.5" y="427.2" class="st3" width="6.2" height="14.4"/>
		<rect x="200.8" y="427.2" class="st3" width="6.2" height="14.4"/>
		<rect x="209" y="427.2" class="st3" width="6.2" height="14.4"/>
		<rect x="217.3" y="427.2" class="st3" width="6.2" height="14.4"/>
		<rect x="225.5" y="427.2" class="st3" width="6.2" height="14.4"/>
		<rect x="233.8" y="427.2" class="st3" width="6.2" height="14.4"/>
		<rect x="242" y="427.2" class="st3" width="6.2" height="14.4"/>
		<rect x="250.3" y="427.2" class="st3" width="6.2" height="14.4"/>
		<rect x="258.5" y="427.2" class="st3" width="6.2" height="14.4"/>
		<rect x="266.8" y="427.2" class="st3" width="6.2" height="14.4"/>
		<rect x="275" y="427.2" class="st3" width="6.2" height="14.4"/>
		<rect x="283.3" y="427.2" class="st3" width="6.2" height="14.4"/>
		<rect x="291.5" y="427.2" class="st3" width="6.2" height="14.4"/>
		<rect x="299.8" y="427.2" class="st3" width="6.2" height="14.4"/>
		<rect x="308" y="427.2" class="st3" width="6.2" height="14.4"/>
		<rect x="316.2" y="427.2" class="st3" width="6.2" height="14.4"/>
		<rect x="131.8" y="426.5" class="st2" width="4.1" height="7.9"/>
		<rect x="140" y="426.5" class="st2" width="4.1" height="7.9"/>
		<rect x="156.4" y="426.5" class="st2" width="4.1" height="7.9"/>
		<rect x="164.7" y="426.5" class="st2" width="4.1" height="7.9"/>
		<rect x="173" y="426.5" class="st2" width="4.1" height="7.9"/>
		<rect x="189.4" y="426.5" class="st2" width="4.1" height="7.9"/>
		<rect x="197.7" y="426.5" class="st2" width="4.1" height="7.9"/>
		<rect x="214.2" y="426.5" class="st2" width="4.1" height="7.9"/>
		<rect x="222.3" y="426.5" class="st2" width="4.1" height="7.9"/>
		<rect x="230.6" y="426.5" class="st2" width="4.1" height="7.9"/>
		<rect x="247.2" y="426.5" class="st2" width="4.1" height="7.9"/>
		<rect x="255.5" y="426.5" class="st2" width="4.1" height="7.9"/>
		<rect x="271.9" y="426.5" class="st2" width="4.1" height="7.9"/>
		<rect x="280" y="426.5" class="st2" width="4.1" height="7.9"/>
		<rect x="288.4" y="426.5" class="st2" width="4.1" height="7.9"/>
		<rect x="304.9" y="427.2" class="st2" width="4.1" height="7.9"/>
		<rect x="313.3" y="427.2" class="st2" width="4.1" height="7.9"/>
	</g>
	<g>
		<rect x="145" y="644.7" class="st2" width="200.2" height="19.5"/>
		<rect x="155.3" y="648.9" class="st3" width="6.2" height="14.4"/>
		<rect x="147.1" y="648.9" class="st3" width="6.2" height="14.4"/>
		<rect x="163.6" y="648.9" class="st3" width="6.2" height="14.4"/>
		<rect x="171.8" y="648.9" class="st3" width="6.2" height="14.4"/>
		<rect x="180.1" y="648.9" class="st3" width="6.2" height="14.4"/>
		<rect x="188.3" y="648.9" class="st3" width="6.2" height="14.4"/>
		<rect x="196.6" y="648.9" class="st3" width="6.2" height="14.4"/>
		<rect x="204.8" y="648.9" class="st3" width="6.2" height="14.4"/>
		<rect x="213" y="648.9" class="st3" width="6.2" height="14.4"/>
		<rect x="221.3" y="648.9" class="st3" width="6.2" height="14.4"/>
		<rect x="229.5" y="648.9" class="st3" width="6.2" height="14.4"/>
		<rect x="237.8" y="648.9" class="st3" width="6.2" height="14.4"/>
		<rect x="246" y="648.9" class="st3" width="6.2" height="14.4"/>
		<rect x="254.3" y="648.9" class="st3" width="6.2" height="14.4"/>
		<rect x="262.5" y="648.9" class="st3" width="6.2" height="14.4"/>
		<rect x="270.8" y="648.9" class="st3" width="6.2" height="14.4"/>
		<rect x="279" y="648.9" class="st3" width="6.2" height="14.4"/>
		<rect x="287.3" y="648.9" class="st3" width="6.2" height="14.4"/>
		<rect x="295.5" y="648.9" class="st3" width="6.2" height="14.4"/>
		<rect x="303.8" y="648.9" class="st3" width="6.2" height="14.4"/>
		<rect x="312" y="648.9" class="st3" width="6.2" height="14.4"/>
		<rect x="320.3" y="648.9" class="st3" width="6.2" height="14.4"/>
		<rect x="328.5" y="648.9" class="st3" width="6.2" height="14.4"/>
		<rect x="336.8" y="648.9" class="st3" width="6.2" height="14.4"/>
		<rect x="152.3" y="648.2" class="st2" width="4.1" height="7.9"/>
		<rect x="160.6" y="648.2" class="st2" width="4.1" height="7.9"/>
		<rect x="177" y="648.2" class="st2" width="4.1" height="7.9"/>
		<rect x="185.2" y="648.2" class="st2" width="4.1" height="7.9"/>
		<rect x="193.5" y="648.2" class="st2" width="4.1" height="7.9"/>
		<rect x="210" y="648.2" class="st2" width="4.1" height="7.9"/>
		<rect x="218.2" y="648.2" class="st2" width="4.1" height="7.9"/>
		<rect x="234.7" y="648.2" class="st2" width="4.1" height="7.9"/>
		<rect x="242.8" y="648.2" class="st2" width="4.1" height="7.9"/>
		<rect x="251.1" y="648.2" class="st2" width="4.1" height="7.9"/>
		<rect x="267.7" y="648.2" class="st2" width="4.1" height="7.9"/>
		<rect x="276" y="648.2" class="st2" width="4.1" height="7.9"/>
		<rect x="292.4" y="648.2" class="st2" width="4.1" height="7.9"/>
		<rect x="300.5" y="648.2" class="st2" width="4.1" height="7.9"/>
		<rect x="308.9" y="648.2" class="st2" width="4.1" height="7.9"/>
		<rect x="325.4" y="648.8" class="st2" width="4.1" height="7.9"/>
		<rect x="333.8" y="648.8" class="st2" width="4.1" height="7.9"/>
	</g>
	<g>
		<rect x="700.8" y="541.7" class="st2" width="200.2" height="19.5"/>
		<rect x="711.1" y="545.8" class="st3" width="6.2" height="14.4"/>
		<rect x="702.8" y="545.8" class="st3" width="6.2" height="14.4"/>
		<rect x="719.3" y="545.8" class="st3" width="6.2" height="14.4"/>
		<rect x="727.6" y="545.8" class="st3" width="6.2" height="14.4"/>
		<rect x="735.8" y="545.8" class="st3" width="6.2" height="14.4"/>
		<rect x="744.1" y="545.8" class="st3" width="6.2" height="14.4"/>
		<rect x="752.3" y="545.8" class="st3" width="6.2" height="14.4"/>
		<rect x="760.6" y="545.8" class="st3" width="6.2" height="14.4"/>
		<rect x="768.8" y="545.8" class="st3" width="6.2" height="14.4"/>
		<rect x="777.1" y="545.8" class="st3" width="6.2" height="14.4"/>
		<rect x="785.3" y="545.8" class="st3" width="6.2" height="14.4"/>
		<rect x="793.6" y="545.8" class="st3" width="6.2" height="14.4"/>
		<rect x="801.8" y="545.8" class="st3" width="6.2" height="14.4"/>
		<rect x="810.1" y="545.8" class="st3" width="6.2" height="14.4"/>
		<rect x="818.3" y="545.8" class="st3" width="6.2" height="14.4"/>
		<rect x="826.5" y="545.8" class="st3" width="6.2" height="14.4"/>
		<rect x="834.8" y="545.8" class="st3" width="6.2" height="14.4"/>
		<rect x="843" y="545.8" class="st3" width="6.2" height="14.4"/>
		<rect x="851.3" y="545.8" class="st3" width="6.2" height="14.4"/>
		<rect x="859.5" y="545.8" class="st3" width="6.2" height="14.4"/>
		<rect x="867.8" y="545.8" class="st3" width="6.2" height="14.4"/>
		<rect x="876" y="545.8" class="st3" width="6.2" height="14.4"/>
		<rect x="884.3" y="545.8" class="st3" width="6.2" height="14.4"/>
		<rect x="892.5" y="545.8" class="st3" width="6.2" height="14.4"/>
		<rect x="708.1" y="545.1" class="st2" width="4.1" height="7.9"/>
		<rect x="716.3" y="545.1" class="st2" width="4.1" height="7.9"/>
		<rect x="732.7" y="545.1" class="st2" width="4.1" height="7.9"/>
		<rect x="740.9" y="545.1" class="st2" width="4.1" height="7.9"/>
		<rect x="749.3" y="545.1" class="st2" width="4.1" height="7.9"/>
		<rect x="765.7" y="545.1" class="st2" width="4.1" height="7.9"/>
		<rect x="773.9" y="545.1" class="st2" width="4.1" height="7.9"/>
		<rect x="790.5" y="545.1" class="st2" width="4.1" height="7.9"/>
		<rect x="798.6" y="545.1" class="st2" width="4.1" height="7.9"/>
		<rect x="806.9" y="545.1" class="st2" width="4.1" height="7.9"/>
		<rect x="823.5" y="545.1" class="st2" width="4.1" height="7.9"/>
		<rect x="831.8" y="545.1" class="st2" width="4.1" height="7.9"/>
		<rect x="848.2" y="545.1" class="st2" width="4.1" height="7.9"/>
		<rect x="856.3" y="545.1" class="st2" width="4.1" height="7.9"/>
		<rect x="864.7" y="545.1" class="st2" width="4.1" height="7.9"/>
		<rect x="881.2" y="545.8" class="st2" width="4.1" height="7.9"/>
		<rect x="889.5" y="545.8" class="st2" width="4.1" height="7.9"/>
	</g>
</g>
<g id="Layer_3">
	<g class="st4">
		<circle class="st2" cx="436.2" cy="535" r="30.3"/>
		<circle class="st3" cx="436.2" cy="535" r="14.9"/>
		<path class="st5" d="M423.4,548.3c3.3,3.2,7.8,5.1,12.8,5.1c4.2,0,8-1.4,11.1-3.7"/>
		<path class="st5" d="M425.3,520c3-2.2,6.8-3.5,10.8-3.5c4.3,0,8.3,1.5,11.5,4"/>
		<path class="st6" d="M420.6,518.3c4.1-3.6,9.6-5.7,15.5-5.7c6.2,0,11.9,2.3,16.1,6.2"/>
		<path class="st6" d="M418.9,550c4.3,4.5,10.4,7.3,17.2,7.3c6.1,0,11.6-2.2,15.8-5.9"/>
		<path class="st5" d="M415.1,551.4c4.9,6.3,12.5,10.3,21.1,10.3c7.9,0,15-3.4,19.9-8.9"/>
		<path class="st5" d="M416.4,516.9c4.9-5.3,11.9-8.7,19.7-8.7c8,0,15.2,3.5,20.1,9.1"/>
	</g>
	<polygon class="st3" points="315.3,353.7 308.8,355.8 315.3,357.9 308.8,360 315.3,362.1 132.7,362.1 139.3,360 132.7,357.9 
		139.3,355.8 132.7,353.7 139.3,351.6 132.7,349.5 315.3,349.5 308.8,351.6 	"/>
</g>
<g id="Layer_4">
	<g>
		<circle class="st2" cx="173" cy="390.9" r="25"/>
		<circle class="st3" cx="172.5" cy="391.4" r="12.5"/>
		<path class="st7" d="M157.7,392.5c0.4,3.8,2.1,7.4,5.2,10c2.6,2.2,5.7,3.4,8.9,3.7"/>
		<path class="st7" d="M174.1,375.9c3.1,0.3,6.1,1.5,8.6,3.6c2.7,2.3,4.4,5.4,5,8.6"/>
		<path class="st8" d="M172,372.3c4.5,0,9,1.6,12.8,4.8c3.9,3.3,6.1,7.8,6.7,12.5"/>
		<path class="st8" d="M154,391.1c0.2,5.1,2.5,10.1,6.8,13.8c3.8,3.3,8.5,4.9,13,4.8"/>
		<path class="st7" d="M150.8,389.9c-0.3,6.5,2.3,13.1,7.6,17.7c4.9,4.3,11.2,5.9,17.2,5.2"/>
		<path class="st7" d="M170.2,369.2c5.9-0.7,12.1,1,16.9,5.2c5,4.3,7.6,10.3,7.6,16.4"/>
	</g>
	<path class="st2" d="M215.6,357.9c-0.7,1.1-2,1.9-3.4,1.9c-2.2,0-4-1.8-4-4c0-2.2,1.8-4,4-4c1.4,0,2.7,0.8,3.4,1.9l1.1-1.1
		c-1-1.4-2.6-2.3-4.5-2.3c-3,0-5.5,2.5-5.5,5.5s2.5,5.5,5.5,5.5c1.8,0,3.5-0.9,4.5-2.3L215.6,357.9z"/>
	<g>
		<circle class="st2" cx="271.9" cy="391.1" r="25"/>
		<circle class="st3" cx="271.9" cy="391.1" r="12.3"/>
		<path class="st9" d="M274.6,376.1c-3.7-0.7-7.7,0.1-11.1,2.3c-2.9,1.9-4.9,4.6-5.9,7.6"/>
		<path class="st9" d="M286.2,396.5c-1.1,2.9-3.1,5.5-5.8,7.3c-3,2-6.4,2.8-9.7,2.5"/>
		<path class="st10" d="M290.2,395.4c-1.2,4.3-4,8.3-8.1,11c-4.3,2.8-9.2,3.8-13.8,3.1"/>
		<path class="st10" d="M276.9,372.9c-5-1.1-10.5-0.3-15.2,2.8c-4.2,2.8-7,6.9-8.1,11.3"/>
		<path class="st9" d="M278.9,370.2c-6.2-2.1-13.3-1.3-19.2,2.6c-5.4,3.6-8.7,9.2-9.6,15.2"/>
		<path class="st9" d="M293.7,394.5c-0.9,5.9-4.2,11.4-9.6,15c-5.5,3.7-12,4.5-17.9,2.9"/>
	</g>
	<polygon class="st2" points="238,350.7 228.1,350.7 228.1,352 232.3,352 232.3,361.2 233.7,361.2 233.7,352 238,352 	"/>
	<path class="st2" d="M445.3,535h-4.8v2.7h2.1v2.2c-1.5,1.8-3.7,3-6.2,3c-4.4,0-8-3.6-8-8c0-4.4,3.6-8,8-8c2.9,0,5.4,1.5,6.8,3.8
		l2.1-2.1c-0.1-0.2-0.2-0.3-0.4-0.5s-0.3-0.3-0.4-0.5c0,0,0,0,0,0c-0.1-0.1-0.3-0.3-0.4-0.4c-0.2-0.2-0.3-0.3-0.5-0.4
		c-0.2-0.1-0.3-0.3-0.5-0.4c-0.2-0.1-0.3-0.3-0.5-0.4c-0.3-0.2-0.7-0.5-1.1-0.7c-0.2-0.1-0.4-0.2-0.6-0.3c-0.2-0.1-0.4-0.2-0.6-0.2
		c-0.2-0.1-0.4-0.2-0.6-0.2c0,0,0,0,0,0c-0.2-0.1-0.4-0.1-0.6-0.2c-0.2,0-0.4-0.1-0.6-0.1c-0.1,0-0.2,0-0.4-0.1c-0.1,0-0.2,0-0.3,0
		c-0.1,0-0.2,0-0.3,0c-0.2,0-0.3,0-0.4,0c-0.2,0-0.4,0-0.7,0c-6,0-10.9,4.9-10.9,10.9c0,6,4.9,10.9,10.9,10.9c0.2,0,0.5,0,0.7,0
		c0.2,0,0.3,0,0.4,0c0.2,0,0.4,0,0.5-0.1c0.1,0,0.2,0,0.4-0.1c0.2,0,0.4-0.1,0.6-0.1c0.2,0,0.4-0.1,0.6-0.2c0,0,0,0,0.1,0
		c0.2-0.1,0.4-0.1,0.6-0.2c0.2-0.1,0.4-0.2,0.6-0.2c0.2-0.1,0.4-0.2,0.6-0.3c0.4-0.2,0.8-0.4,1.1-0.7v0c0.2-0.1,0.3-0.2,0.5-0.4
		c0.5-0.4,1-0.8,1.4-1.3c0.3-0.3,0.6-0.6,0.8-1l0,0c0.7-1,1.3-2.2,1.6-3.5c0.2-0.9,0.3-1.8,0.3-2.7H445.3z"/>
	<path class="st2" d="M227.3,355.8h-2.4v1.4h1v1.1c-0.7,0.9-1.8,1.5-3.1,1.5c-2.2,0-4-1.8-4-4c0-2.2,1.8-4,4-4
		c1.4,0,2.7,0.8,3.4,1.9l1-1c-0.1-0.1-0.1-0.2-0.2-0.3s-0.1-0.2-0.2-0.2c0,0,0,0,0,0c-0.1-0.1-0.1-0.1-0.2-0.2
		c-0.1-0.1-0.2-0.1-0.2-0.2c-0.1-0.1-0.2-0.1-0.2-0.2c-0.1-0.1-0.2-0.1-0.3-0.2c-0.2-0.1-0.4-0.2-0.5-0.3c-0.1,0-0.2-0.1-0.3-0.1
		c-0.1,0-0.2-0.1-0.3-0.1c-0.1,0-0.2-0.1-0.3-0.1c0,0,0,0,0,0c-0.1,0-0.2-0.1-0.3-0.1c-0.1,0-0.2,0-0.3-0.1c-0.1,0-0.1,0-0.2,0
		c0,0-0.1,0-0.1,0c0,0-0.1,0-0.1,0c-0.1,0-0.1,0-0.2,0c-0.1,0-0.2,0-0.3,0c-3,0-5.4,2.4-5.4,5.4c0,3,2.4,5.4,5.4,5.4
		c0.1,0,0.2,0,0.3,0c0.1,0,0.1,0,0.2,0c0.1,0,0.2,0,0.3,0c0.1,0,0.1,0,0.2,0c0.1,0,0.2,0,0.3-0.1c0.1,0,0.2-0.1,0.3-0.1c0,0,0,0,0,0
		c0.1,0,0.2-0.1,0.3-0.1c0.1,0,0.2-0.1,0.3-0.1c0.1,0,0.2-0.1,0.3-0.1c0.2-0.1,0.4-0.2,0.5-0.3v0c0.1-0.1,0.2-0.1,0.2-0.2
		c0.3-0.2,0.5-0.4,0.7-0.6c0.1-0.2,0.3-0.3,0.4-0.5l0,0c0.4-0.5,0.6-1.1,0.8-1.7c0.1-0.4,0.2-0.9,0.2-1.4H227.3z"/>
	<g>
		<circle class="st2" cx="187.2" cy="612.5" r="31"/>
		<circle class="st3" cx="186.7" cy="613" r="15.5"/>
		<path class="st11" d="M168.1,614.8c0.5,4.7,2.6,9.2,6.5,12.5c3.2,2.8,7.1,4.3,11.1,4.6"/>
		<path class="st11" d="M188.6,594.1c3.8,0.3,7.6,1.8,10.7,4.5c3.4,2.9,5.4,6.7,6.2,10.8"/>
		<path class="st11" d="M186,589.6c5.6,0,11.2,2,15.9,6c4.8,4.2,7.6,9.8,8.3,15.5"/>
		<path class="st11" d="M163.5,613c0.3,6.3,3.2,12.6,8.5,17.2c4.7,4.1,10.5,6.1,16.2,6"/>
		<path class="st11" d="M159.6,611.6c-0.4,8.1,2.8,16.3,9.5,22.1c6.1,5.3,13.9,7.4,21.4,6.4"/>
		<path class="st11" d="M183.8,585.7c7.4-0.9,15,1.3,21.1,6.5c6.2,5.4,9.4,12.9,9.5,20.5"/>
	</g>
	<path class="st2" d="M195.1,617.9c-1.5,2.5-4.3,4.2-7.4,4.2c-4.8,0-8.7-3.9-8.7-8.7c0-4.8,3.9-8.7,8.7-8.7c3.1,0,5.9,1.7,7.4,4.2
		l2.3-2.3c-2.2-3.1-5.7-5-9.7-5c-6.6,0-11.9,5.3-11.9,11.9s5.3,11.9,11.9,11.9c4,0,7.6-2,9.7-5.1L195.1,617.9z"/>
	<g>
		<g>
			<circle class="st2" cx="302.6" cy="612" r="31.5"/>
			<circle class="st3" cx="302.6" cy="612" r="15.5"/>
			<path class="st12" d="M305.5,593.2c-4.7-0.8-9.7,0.1-14,2.9c-3.6,2.4-6.2,5.8-7.5,9.6"/>
			<path class="st12" d="M320.2,619c-1.4,3.7-3.9,6.9-7.4,9.3c-3.8,2.5-8.1,3.5-12.3,3.2"/>
			<path class="st13" d="M325.2,617.7c-1.5,5.5-5,10.5-10.2,13.9c-5.4,3.6-11.7,4.8-17.5,3.9"/>
			<path class="st13" d="M308.4,589.2c-6.3-1.4-13.2-0.3-19.2,3.6c-5.3,3.5-8.8,8.7-10.3,14.3"/>
			<path class="st12" d="M310.9,585.8c-7.9-2.6-16.8-1.7-24.2,3.2c-6.9,4.6-11.1,11.6-12.1,19.2"/>
			<path class="st12" d="M329.7,616.5c-1.2,7.4-5.3,14.4-12.1,18.9c-6.9,4.6-15.2,5.7-22.7,3.7"/>
		</g>
		<polygon class="st2" points="310.1,604.5 294.1,604.5 294.1,606.5 301.1,606.5 301.1,620.5 303.1,620.5 303.1,606.5 310.1,606.5 
					"/>
	</g>
	<circle class="st2" cx="129.6" cy="347" r="2.5"/>
	<circle class="st2" cx="319.9" cy="347" r="2.5"/>
	<polygon class="st14" points="132,346.5 130.1,346.5 130.1,344.6 129.2,344.6 129.2,346.5 127.3,346.5 127.3,347.4 129.2,347.4 
		129.2,349.4 130.1,349.4 130.1,347.4 132,347.4 	"/>
	<polygon class="st14" points="322.3,346.5 320.3,346.5 320.3,344.6 319.5,344.6 319.5,346.5 317.5,346.5 317.5,347.4 319.5,347.4 
		319.5,349.4 320.3,349.4 320.3,347.4 322.3,347.4 	"/>
	<circle class="st2" cx="319.9" cy="420.5" r="2.5"/>
	<polygon class="st14" points="322.3,420.1 320.3,420.1 320.3,418.2 319.5,418.2 319.5,420.1 317.5,420.1 317.5,421 319.5,421 
		319.5,422.9 320.3,422.9 320.3,421 322.3,421 	"/>
	<circle class="st2" cx="129.6" cy="420.5" r="2.5"/>
	<polygon class="st14" points="132,420.1 130.1,420.1 130.1,418.2 129.2,418.2 129.2,420.1 127.3,420.1 127.3,421 129.2,421 
		129.2,422.9 130.1,422.9 130.1,421 132,421 	"/>
	<path class="st0" d="M258.8,610.6c-0.7-2.3-1.4-3-1.4-3s-1.7-2.6-3.2-3.2c0,0-3.1-2.2-6.7-1.1l-1.6-7.9c0,0,2.6-2.4,3.8-4.5
		c1.1-2.1,1.2-2.2,1.2-2.2s1.7-3.8,1.8-5.3c0,0,0.7-3.2,0.6-4.2c0,0,0.1-3.6-0.2-5.3c-0.4-1.8-0.5-2.2-0.5-2.2s-1-3.7-2.3-5.3
		c0,0-0.8-1.3-1.4-1.8c-0.6-0.5-1.5,0.2-1.5,0.2s-2,1-3.1,3.2c-1.2,2.2-1.3,2.8-1.3,2.8s-1,2.9-1.1,4.5c0,0-0.4,2-0.3,4.7
		c0.1,2.7,0.4,4.2,0.4,4.2s0.7,4.1,1.1,5l-2.6,2.6l-2.6,2.8c0,0-1.8,2.2-1.9,2.3c-0.2,0.2-1.6,2.2-1.6,2.2s-0.9,1.2-2.2,4.3
		c-1.3,3-1.4,5.6-1.4,5.6s-0.1,3.4,0.7,5.3c0,0,0.7,2.7,2.2,4.8c1.5,2.1,2.2,2.8,2.2,2.8s2.6,2.3,3.8,2.7c0,0,1.8,1,3.7,1.4
		c0,0,3.9,0.6,6.9-0.1l1.3,5.3c0,0,1.1,4.2,0.6,6.2c0,0,0.1,2.4-1.9,4.2c-2,1.8-4.9,1.8-4.9,1.8s-2.5,0-3.6-1.7v-0.2
		c0,0,2.7,0.4,4-2.1c1.4-2.5-0.2-4.9-0.2-4.9s-1.6-2.3-4-2c-2.4,0.3-3.6,2.7-3.6,2.7s-1.2,2.2-0.6,4.1c0,0,0.3,1.7,1.6,3
		c1.3,1.3,2.9,1.9,2.9,1.9s2.1,0.9,4.2,0.7c2.2-0.2,3-0.7,3-0.7s2.1-0.9,2.8-1.9c0,0,1.4-1.5,1.8-3.2c0.4-1.7,0.3-2.7,0.3-2.7
		s-0.2-2.8-0.5-3.9l-1.5-7.3c0,0,2.6-0.9,3.7-2.1c0,0,1.6-1.2,2.6-3.5s1-3.9,1-3.9S259.5,612.8,258.8,610.6z M243.7,581.4
		c0.1-2.1,1.5-5.8,1.5-5.8s1.1-3,2.7-3.8c1.6-0.7,2.6,0,2.6,0s1,0,1.1,2.8c0.1,2.8-1.2,5.5-1.2,5.5c-2.9,6.2-5.8,7.8-5.8,7.8
		c-0.4-0.8-0.8-3.4-0.8-3.4C243.4,583.5,243.7,581.4,243.7,581.4z M247.1,624.7c0,0-1.3,0.2-4-0.3c-2.7-0.6-4.9-2.5-4.9-2.5
		s-0.6-0.5-1.9-2.1c-1.3-1.6-2-4.8-2-4.8s-0.2-0.4,0-3.1c0.1-2.6,1.8-5.7,1.8-5.7s0.7-1.4,2.5-3.7c1.7-2.2,6-6,6-6l1.3,7
		c-2.8,1-4.5,3.5-4.5,3.5c-2.4,3.3-1.9,7-1.9,7s0.4,2.9,2.4,4.7c2,1.8,3.8,2.1,3.8,2.1c0.9-0.1,0.3-0.7,0.3-0.7
		c-2.9-1.1-3.6-4.2-3.6-4.2s-0.7-1.7,0.7-4.1c1.4-2.4,3.9-3.1,3.9-3.1l3.1,15.5C249.5,624.4,247.1,624.7,247.1,624.7z M256.1,616.1
		c0,0,0,3.8-1.5,5.3c0,0-1.1,1.6-3,2.3l-3.1-15.2c0,0,3.6-0.1,5.8,2.8C256.5,614.2,256.1,616.1,256.1,616.1z"/>
</g>
</svg>
