<?xml version="1.0" encoding="utf-8"?>
<!-- Generator: Adobe Illustrator 28.1.0, SVG Export Plug-In . SVG Version: 6.00 Build 0)  -->
<svg version="1.1" xmlns="http://www.w3.org/2000/svg" xmlns:xlink="http://www.w3.org/1999/xlink" x="0px" y="0px"
	 viewBox="0 0 1920 1080" style="enable-background:new 0 0 1920 1080;" xml:space="preserve">
<style type="text/css">
	.st0{fill:none;stroke:#191C19;stroke-width:0.9994;stroke-miterlimit:10;}
	.st1{fill:#191C19;}
	.st2{fill:#E6E2C7;}
	.st3{opacity:0.8;}
	.st4{fill:none;stroke:#FFFFFF;stroke-width:1.3602;stroke-miterlimit:10;}
	.st5{fill:none;stroke:#FFFFFF;stroke-width:1.3424;stroke-miterlimit:10;}
	.st6{opacity:0.9;}
	.st7{fill:none;stroke:#FFFFFF;stroke-miterlimit:10;}
	.st8{fill:none;stroke:#FFFFFF;stroke-width:0.9869;stroke-miterlimit:10;}
	.st9{fill:none;stroke:#FFFFFF;stroke-width:1.3762;stroke-miterlimit:10;}
	.st10{fill:none;stroke:#FFFFFF;stroke-width:1.3582;stroke-miterlimit:10;}
</style>
<g id="Layer_1">
	<path class="st0" d="M319.7,342.7h-190c-2.8,0-5,2.2-5,5v95h200v-95C324.7,344.9,322.5,342.7,319.7,342.7z"/>
</g>
<g id="Layer_2">
	<g>
		<rect x="124.5" y="423.1" class="st1" width="200.2" height="19.5"/>
		<rect x="134.8" y="427.2" class="st2" width="6.2" height="14.4"/>
		<rect x="126.5" y="427.2" class="st2" width="6.2" height="14.4"/>
		<rect x="143" y="427.2" class="st2" width="6.2" height="14.4"/>
		<rect x="151.3" y="427.2" class="st2" width="6.2" height="14.4"/>
		<rect x="159.5" y="427.2" class="st2" width="6.2" height="14.4"/>
		<rect x="167.8" y="427.2" class="st2" width="6.2" height="14.4"/>
		<rect x="176" y="427.2" class="st2" width="6.2" height="14.4"/>
		<rect x="184.3" y="427.2" class="st2" width="6.2" height="14.4"/>
		<rect x="192.5" y="427.2" class="st2" width="6.2" height="14.4"/>
		<rect x="200.8" y="427.2" class="st2" width="6.2" height="14.4"/>
		<rect x="209" y="427.2" class="st2" width="6.2" height="14.4"/>
		<rect x="217.3" y="427.2" class="st2" width="6.2" height="14.4"/>
		<rect x="225.5" y="427.2" class="st2" width="6.2" height="14.4"/>
		<rect x="233.8" y="427.2" class="st2" width="6.2" height="14.4"/>
		<rect x="242" y="427.2" class="st2" width="6.2" height="14.4"/>
		<rect x="250.3" y="427.2" class="st2" width="6.2" height="14.4"/>
		<rect x="258.5" y="427.2" class="st2" width="6.2" height="14.4"/>
		<rect x="266.8" y="427.2" class="st2" width="6.2" height="14.4"/>
		<rect x="275" y="427.2" class="st2" width="6.2" height="14.4"/>
		<rect x="283.3" y="427.2" class="st2" width="6.2" height="14.4"/>
		<rect x="291.5" y="427.2" class="st2" width="6.2" height="14.4"/>
		<rect x="299.8" y="427.2" class="st2" width="6.2" height="14.4"/>
		<rect x="308" y="427.2" class="st2" width="6.2" height="14.4"/>
		<rect x="316.2" y="427.2" class="st2" width="6.2" height="14.4"/>
		<rect x="131.8" y="426.5" class="st1" width="4.1" height="7.9"/>
		<rect x="140" y="426.5" class="st1" width="4.1" height="7.9"/>
		<rect x="156.4" y="426.5" class="st1" width="4.1" height="7.9"/>
		<rect x="164.7" y="426.5" class="st1" width="4.1" height="7.9"/>
		<rect x="173" y="426.5" class="st1" width="4.1" height="7.9"/>
		<rect x="189.4" y="426.5" class="st1" width="4.1" height="7.9"/>
		<rect x="197.7" y="426.5" class="st1" width="4.1" height="7.9"/>
		<rect x="214.2" y="426.5" class="st1" width="4.1" height="7.9"/>
		<rect x="222.3" y="426.5" class="st1" width="4.1" height="7.9"/>
		<rect x="230.6" y="426.5" class="st1" width="4.1" height="7.9"/>
		<rect x="247.2" y="426.5" class="st1" width="4.1" height="7.9"/>
		<rect x="255.5" y="426.5" class="st1" width="4.1" height="7.9"/>
		<rect x="271.9" y="426.5" class="st1" width="4.1" height="7.9"/>
		<rect x="280" y="426.5" class="st1" width="4.1" height="7.9"/>
		<rect x="288.4" y="426.5" class="st1" width="4.1" height="7.9"/>
		<rect x="304.9" y="427.2" class="st1" width="4.1" height="7.9"/>
		<rect x="313.3" y="427.2" class="st1" width="4.1" height="7.9"/>
	</g>
</g>
<g id="Layer_3">
	<g class="st3">
		<circle class="st1" cx="283.2" cy="383.8" r="41.2"/>
		<circle class="st2" cx="283.2" cy="383.8" r="20.3"/>
		<path class="st4" d="M287.6,359.1c-6.1-1.1-12.7,0.1-18.3,3.8c-4.7,3.1-8,7.6-9.8,12.5"/>
		<path class="st4" d="M306.8,392.7c-1.8,4.8-5,9.1-9.6,12.1c-4.9,3.3-10.5,4.6-16,4.1"/>
		<path class="st5" d="M313.4,391c-2,7.1-6.5,13.7-13.3,18.2c-7,4.7-15.2,6.3-22.8,5.1"/>
		<path class="st5" d="M291.4,353.8c-8.2-1.9-17.3-0.5-25,4.7c-6.9,4.6-11.5,11.3-13.4,18.6"/>
		<path class="st4" d="M294.7,349.3c-10.3-3.4-21.9-2.2-31.6,4.2c-9,6-14.4,15.2-15.9,25.1"/>
		<path class="st4" d="M319.2,389.5c-1.5,9.7-7,18.8-15.8,24.7c-9.1,6-19.8,7.5-29.6,4.8"/>
	</g>
	<g class="st6">
		<circle class="st1" cx="225.4" cy="392.9" r="30.3"/>
		<circle class="st2" cx="225.4" cy="392.9" r="14.9"/>
		<path class="st7" d="M212.7,406.3c3.3,3.2,7.8,5.1,12.8,5.1c4.2,0,8-1.4,11.1-3.7"/>
		<path class="st7" d="M214.6,377.9c3-2.2,6.8-3.5,10.8-3.5c4.3,0,8.3,1.5,11.5,4"/>
		<path class="st8" d="M209.9,376.3c4.1-3.6,9.6-5.7,15.5-5.7c6.2,0,11.9,2.3,16.1,6.2"/>
		<path class="st8" d="M208.2,408c4.3,4.5,10.4,7.3,17.2,7.3c6.1,0,11.6-2.2,15.8-5.9"/>
		<path class="st7" d="M204.3,409.4c4.9,6.3,12.5,10.3,21.1,10.3c7.9,0,15-3.4,19.9-8.9"/>
		<path class="st7" d="M205.7,374.8c4.9-5.3,11.9-8.7,19.7-8.7c8,0,15.2,3.5,20.1,9.1"/>
	</g>
	<g>
		<circle class="st1" cx="167" cy="384.2" r="41.7"/>
		<circle class="st2" cx="167" cy="384.2" r="20.5"/>
		<path class="st9" d="M141.7,386.6c0.6,6.3,3.5,12.3,8.7,16.8c4.3,3.8,9.6,5.8,14.9,6.1"/>
		<path class="st9" d="M169.2,358.8c5.1,0.4,10.2,2.5,14.4,6.1c4.5,3.9,7.3,9,8.4,14.5"/>
		<path class="st10" d="M165.8,352.9c7.5,0,15.1,2.7,21.3,8c6.5,5.6,10.3,13.1,11.2,20.9"/>
		<path class="st10" d="M135.5,384.3c0.4,8.5,4.3,17,11.4,23.1c6.3,5.5,14.1,8.1,21.8,8"/>
		<path class="st9" d="M130.2,382.4c-0.5,10.9,3.8,22,12.7,29.7c8.2,7.1,18.7,9.9,28.8,8.6"/>
		<path class="st9" d="M162.7,347.6c9.9-1.2,20.2,1.7,28.3,8.7c8.3,7.2,12.7,17.3,12.7,27.5"/>
	</g>
</g>
<g id="Layer_4">
	<path class="st1" d="M173.5,388c-1.4,2.3-3.9,3.8-6.8,3.8c-4.4,0-8-3.6-8-8s3.6-8,8-8c2.9,0,5.4,1.5,6.8,3.8l2.1-2.1
		c-2-2.8-5.2-4.6-8.9-4.6c-6,0-10.9,4.9-10.9,10.9c0,6,4.9,10.9,10.9,10.9c3.7,0,6.9-1.8,8.9-4.6L173.5,388z"/>
	<polygon class="st1" points="293.4,373.5 273.1,373.5 273.1,376.2 281.9,376.2 281.9,395.2 284.6,395.2 284.6,376.2 293.4,376.2 	
		"/>
	<path class="st1" d="M235.3,392.7h-4.8v2.7h2.1v2.2c-1.5,1.8-3.7,3-6.2,3c-4.4,0-8-3.6-8-8c0-4.4,3.6-8,8-8c2.9,0,5.4,1.5,6.8,3.8
		l2.1-2.1c-0.1-0.2-0.2-0.3-0.4-0.5s-0.3-0.3-0.4-0.5c0,0,0,0,0,0c-0.1-0.1-0.3-0.3-0.4-0.4c-0.2-0.2-0.3-0.3-0.5-0.4
		c-0.2-0.1-0.3-0.3-0.5-0.4c-0.2-0.1-0.3-0.3-0.5-0.4c-0.3-0.2-0.7-0.5-1.1-0.7c-0.2-0.1-0.4-0.2-0.6-0.3c-0.2-0.1-0.4-0.2-0.6-0.2
		c-0.2-0.1-0.4-0.2-0.6-0.2c0,0,0,0,0,0c-0.2-0.1-0.4-0.1-0.6-0.2c-0.2,0-0.4-0.1-0.6-0.1c-0.1,0-0.2,0-0.4-0.1c-0.1,0-0.2,0-0.3,0
		c-0.1,0-0.2,0-0.3,0c-0.2,0-0.3,0-0.4,0c-0.2,0-0.4,0-0.7,0c-6,0-10.9,4.9-10.9,10.9c0,6,4.9,10.9,10.9,10.9c0.2,0,0.5,0,0.7,0
		c0.2,0,0.3,0,0.4,0c0.2,0,0.4,0,0.5-0.1c0.1,0,0.2,0,0.4-0.1c0.2,0,0.4-0.1,0.6-0.1c0.2,0,0.4-0.1,0.6-0.2c0,0,0,0,0.1,0
		c0.2-0.1,0.4-0.1,0.6-0.2c0.2-0.1,0.4-0.2,0.6-0.2c0.2-0.1,0.4-0.2,0.6-0.3c0.4-0.2,0.8-0.4,1.1-0.7v0c0.2-0.1,0.3-0.2,0.5-0.4
		c0.5-0.4,1-0.8,1.4-1.3c0.3-0.3,0.6-0.6,0.8-1l0,0c0.7-1,1.3-2.2,1.6-3.5c0.2-0.9,0.3-1.8,0.3-2.7H235.3z"/>
</g>
</svg>
