<?xml version="1.0" encoding="utf-8"?>
<!-- Generator: Adobe Illustrator 28.1.0, SVG Export Plug-In . SVG Version: 6.00 Build 0)  -->
<svg version="1.1" xmlns="http://www.w3.org/2000/svg" xmlns:xlink="http://www.w3.org/1999/xlink" x="0px" y="0px"
	 viewBox="0 0 1920 1080" style="enable-background:new 0 0 1920 1080;" xml:space="preserve">
<style type="text/css">
	.st0{fill:#191C19;}
</style>
<g id="Layer_1">
	<g>
		<path class="st0" d="M1861,125.5v-21H140.6H58v871h82.6H1861v-21H186.4v-191H1861v-21H186.4v-192H1861v-21H186.4v-191H1861v-21
			H186.4v-192H1861z M158,954.5h-17.4v-191H158V954.5z M158,742.5h-17.4v-192H158V742.5z M158,529.5h-17.4v-191H158V529.5z
			 M158,317.5h-17.4v-192H158V317.5z"/>
	</g>
</g>
<g id="Layer_2">
	<path class="st0" d="M544.1,674.7c-9.8,139.5-70.6,236.4-144,197.5c-108.2-91-84.7-614.6,10.1-704.8
		c55.1-51.3,217.1,118.2,112.8,93.8c-68.2-29.5-92.8,176.1-36.5,229.2c57.2,82.5,132.9-69.6,112.1-182.6
		C567.4,96.6,425.9,64.7,321.2,143.2C178.2,299.7,172,812.7,332.3,953.3c82.6,76.1,241.6-55.6,211.8-276.9"/>
	<path class="st0" d="M1075.5,405.3c-10.9-139.5-78.5-236.4-160.2-197.5c-120.4,91-94.3,614.6,11.2,704.8
		c61.3,51.3,241.7-118.2,125.6-93.8c-75.9,29.5-103.3-176.1-40.6-229.2c63.7-82.5,148,69.6,124.7,182.5
		c-34.7,211.3-192.2,243.2-308.7,164.7c-159.2-156.5-166.1-669.5,12.4-810.1c92-76.1,269,55.6,235.8,276.9"/>
	<g>
		<path class="st0" d="M3644.6,5707.4C3644.6,5707.4,3644.6,5707.4,3644.6,5707.4c0,2.9,0,5.8,0,8.6c0.2,0.4,0.4,0.8,0.5,1.2
			c0.9,21.3,1.5,44,13.4,69.6c40.5,56.6,98.4,78.5,170,77v0.1c6.8-0.3,13-0.9,18.1-1.5c1.3-0.4,2.9-0.7,4.6-0.9
			c33.4-4.3,64.3-14.7,90.7-34.9c43.6-33.3,56.4-90.4,30.3-136.1c-5.3-9.3-12.2-17.7-20-29c18.5-6,35.9-11.6,54.2-17.5l12.9-4.7
			l6.6,2v0c22,6.7,42.2,12.9,64.3,19.7c-4.3,6.3-7,10.5-9.9,14.4c-41.7,56.4-26.4,125.4,35.8,161.8c21.6,12.6,45.2,20.3,70.4,23.5
			c1.9,0.3,3.5,0.6,4.8,1.1c2.5,0,5.3,0.2,7.8,0.9c4.2,0.1,8.5,0.1,12.4,1v-0.1c59,1.9,109.7-12.4,148.7-50.6
			c5.5-3.7,10.5-9.3,14.9-16.4c1.5-1.9,3-3.8,4.5-5.8c0.3-1.4,0.6-2.8,0.8-4.2c7.9-17.3,12.8-40.3,12.8-65.6
			c0-9.9-0.7-19.4-2.1-28.4c-0.1-2.7-0.3-5.4-0.9-8.1c-1.4-6.8-2.9-13.9-5.1-20.6c-1.4-4.2-3.8-7.8-5.4-11.8c-2.2-4-3.7-6.6-5.1-9.2
			c-14.7-26.5-38.3-41.1-69.9-44.4c-23.4-2.4-52.3,12.3-62.9,31.8c-9.9,18.2-6.1,35.1,6.5,50.9c12.8,16.1,30,19.1,49,16.2
			c0,0.1,0,0.2,0,0.3c7.8-0.9,22.5-4.2,30.7-15.7c0.2-0.3,0.4-0.5,0.6-0.8c0,0,0,0,0-0.1c0,0,0,0,0-0.1c1.5-2.1,2.7-4.5,3.6-7
			c3.6-9.2,2.9-17.8,1.9-23c-0.6-5-1.6-10-1.9-15c-0.1-1.9,0.6-4.8,1.8-6c1.4-0.8,3.8-0.9,7.7,0.8c0,0,20.7,14.9,29.3,54.8
			c1.9,9.9,2.6,20,2,30.4c-1.4,12.3-5.4,19.7-7.9,23.2c-0.6,0.8-1.3,1.6-2,2.4c-1.1,1-11.7,10.5-25.1,18c-5,2.6-10.2,4.9-15.5,7
			c-8.9,2.9-15.2,4.9-19.4,6.1c0,0.1,0,0.1,0.1,0.2c-10,2.7-20.2,4.7-30.5,6.1c-19.7,2.7-39.7,3.5-60.8,5.3v-0.1
			c-1.4,0.1-2.8,0-4.1-0.4c-2.3,0-4.6-0.2-6.8-0.7c-2.3,0-4.5-0.1-6.4-0.9c-31.4-2.7-62.1-5.5-85.5-27.6c-18-17-16.7-38.5-12.3-59.9
			c5.4-26.2,23.6-41.9,50.1-49.9c8.8-2.7,17.8-4.9,26.7-7.3c-50.4-3.5-95.4-19.4-137.1-45.1l-17.3-10.6l-9,6.3
			c-1.9,2.2-5.2,4.2-10.3,7.2c-38.2,22.3-79.2,36.2-124.7,37.2c-1.7,0-3.3,0.2-5,0.4c-0.6,0.1-1.2,0.5-3.7,1.8
			c14.5,5.7,27.3,10.9,40.2,15.9c16.1,6.1,27.2,16.9,33.8,31.6c7.1,15.6,8.6,32.1,5.9,48.7c-2.3,14-10.9,24.7-23.5,32.4
			c-23.7,14.5-50.7,17.4-78.8,19.4c-0.4,0.1-0.8,0.2-1.2,0.2c-4.9,0.3-10.6,1-15.6,0c-27.7,1.3-54.4-1.4-80.5-8.2
			c-14.7-3.8-29.3-8.9-43.1-15.1c-25.4-11.5-37.9-30.1-34.9-57.4c2.5-22.9,9.2-44.1,24.1-62.5c3.6-4.5,9.3-7.5,14-11.2
			c1,0.7,1.9,1.4,2.9,2.1c0,2.4,0.2,4.7,0,7.1c-0.4,4-1.2,8-1.6,12.1c-2.2,24,7.1,39.5,27.2,45.7c27.6,8.5,48.5,1.8,63.2-20.5
			c12.4-18.7,9.9-40.1-6.8-55.7c-38.7-36-88.2-19.5-111.7,6.8c-8.2,9.2-13.9,20.3-21.4,31.5v-0.2c-0.5,1.1-1.1,2.2-1.6,3.2
			c-3.2,5.8-5.7,11.9-7.9,18.2c-0.6,1.7-1.1,3.5-1.5,5.2c-1.1,3.6-2,7.2-2.6,10.9c-0.2,0.8-0.5,1.6-0.8,2.4c0,0,0,0,0,0
			c0,1.5,0,3,0,4.5C3644.5,5703.7,3644.5,5705.6,3644.6,5707.4z"/>
	</g>
	<g>
		<g>
			<path class="st0" d="M5198.6,5543.3c-11.2-34.3-18.6-69.2-12.9-105.9c4-25.7,13.1-48.8,30.5-67.7c0.7-0.8,1.7-1.5,2.8-2.1
				c0.1-0.1,0.1-0.3,0.2-0.4c0.6-1.1,1.5-1.9,2.6-2.3c2.5-3,5.9-5.5,9.3-7.7c7.3-6.7,15.2-12.6,22.5-19c2.9-2.5,7.1-6.7,11.7-10
				c-6.3-1.3-12.7-2.6-19-4c-16.6,12.3-32,26.5-48,39.7c0.2,0,0.4,0.1,0.6,0.1c-1.8,2.1-3,3.3-4,4.7c-8.1,10.5-17,20.5-24.1,31.7
				c-22.1,34.8-31.2,73.4-27.7,115.3c2.1,24.7,8.1,48.6,14.9,72.2c9.2,32,19.5,63.6,28.3,95.7c8.1,29.7,12.4,60,8,91.3
				c-12.7,91.6-99.1,154-184.3,132.7c-56-14-94.9-62.9-98-123.6c-1.1-21.6,1.2-42.6,10.4-62.2c20.5-43.6,63.6-60.5,102.8-52.5
				c24,4.9,40.8,22.2,44.7,46c4.5,26.9-1.7,50.2-24.3,65.6c-9.2,6.3-20,10.3-30.4,14.2c-8,3-16.6,4.1-25.1,6v11.4
				c25.7-1.5,50.4-5.2,73.1-17.6c27.5-15,45.7-37.8,49-71.5c3.3-34.1-8.6-62.7-38.5-75c-9.4-3.9-20-6.1-30.1-6.6
				c-49.6-2.2-92.8,14.7-128.2,52c-35.7,37.6-49.6,83.1-41,135.4c7.5,45.8,34.3,76.6,74.1,93.7c49,21.1,99,18.4,148.3,0.3
				c42.6-15.6,75.7-45.1,102.7-82.6c22.3-31,35.9-65.9,39.8-104.8c3.7-36.5-0.5-72.3-11.6-107
				C5218.6,5600.3,5208,5572,5198.6,5543.3z"/>
		</g>
	</g>
	<g>
		<g>
			<path class="st0" d="M6018.3,5865.7c17.3-11.4,31.5-25.2,41.9-41.9c11.5-18.5,16.9-38.5,20.1-59.2c0.7-4.4,1.1-8.9,1.6-13.3
				c0-6.9,0-13.8,0-20.7c-0.2-0.8-0.4-1.5-0.5-2.3c-1.7-24.3-9.1-47-23.9-67.8c-9.1-12.8-20-24.2-33.7-33.5
				c-21.3-14.4-45.5-22.5-72.2-24.6c-25.2-2-49.2,1.9-71.7,12.4c-12.7,5.9-22.2,14.4-28.3,25.8c-7.7,14.4-9.2,29.5-5.4,45
				c5.2,21.1,18.8,36.1,42.5,43.2c14.7,4.4,29.8,5.1,45.1,3c12.3-1.7,23.9-4.7,33.4-12.1c16.5-12.9,24.5-29,22-48.3
				c-1.6-12.3-7.9-23.2-16.4-33c-1.7-2-3.5-4-5.5-6.2c1-0.1,1.5-0.2,2-0.2c10.7-0.5,20.8,1.7,30.5,5.6c14.4,5.7,25,15.1,33.8,26.3
				c18.7,23.9,26.4,50.2,22.6,79.2c-2.4,18.1-11.5,33-26.3,45.4c-16.8,14-36.9,22.8-59.1,28c-28.8,6.7-58.1,10.3-87.8,11.2
				c-30.1,0.9-60.1-0.6-89.6-6.1c-42.3-7.8-79.8-24.5-113.8-47.6c-23.1-15.7-43.6-33.8-61.7-54c-22.8-25.4-42-52.9-57.1-82.4
				c-7.9-15.5-15.7-31.1-23.6-46.7c-1.3-2.6-3-5.2-5.1-7.3c-3-3.1-6.4-2.5-8.2,1.3c-1.9,3.9-1.6,8-0.1,12c2.7,7,5.4,14.1,8.2,21.1
				c12.1,30.4,26,60.1,42.8,88.7c20.1,34.3,43.9,66.4,72.9,95.5c16.6,16.7,34.4,32.3,54.6,45.7c28.6,18.9,59.9,33.3,94.2,42.5
				c22.6,6.1,45.7,9.7,69.4,10.4c20.6,0.6,41.1-0.2,61.5-2.7C5960.7,5893.9,5991.2,5883.5,6018.3,5865.7z"/>
		</g>
		<g>
			<path class="st0" d="M5957.6,5971.5c-1.5,18.1,13.1,33.2,33.1,34.4c24.4,1.4,39.4-14.8,39.5-30.2c1.5-17.6-13.6-32.4-34.5-33.4
				C5975.6,5941.2,5959,5953.8,5957.6,5971.5z"/>
		</g>
		<g>
			<path class="st0" d="M5866.5,5974c0.4-17.5-15.5-31.6-35.8-31.9c-20.6-0.3-36.5,13.3-37,31.4c-0.4,17.3,15.1,31.8,34.1,32.5
				C5850.1,6006.8,5866.9,5990.3,5866.5,5974z"/>
		</g>
	</g>
	<g>
		<path class="st0" d="M1802.5,239.1c-1.7-25.7-9.1-49.9-23.9-71.9c-9.1-13.6-20-25.7-33.7-35.5c-21.3-15.2-45.5-23.8-72.2-26.1
			c-25.2-2.1-49.2,2-71.7,13.2c-12.7,6.3-22.2,15.3-28.3,27.4c-7.7,15.3-9.2,31.3-5.4,47.7c5.2,22.4,18.7,38.2,42.5,45.8
			c14.7,4.7,29.8,5.4,45.1,3.2c12.2-1.8,23.9-4.9,33.4-12.8c16.5-13.6,24.4-30.7,22-51.2c-1.6-13-7.9-24.6-16.4-35
			c-1.7-2.1-3.5-4.2-5.5-6.6c1-0.1,1.5-0.2,2-0.2c10.7-0.6,20.8,1.8,30.5,5.9c14.4,6.1,25,16,33.7,27.9
			c18.7,25.4,26.3,53.3,22.5,83.9c-2.4,19.2-11.5,35-26.3,48.2c-16.8,14.9-36.9,24.1-59,29.6c-28.7,7.1-58,11-87.7,11.9
			c-30.1,0.9-60-0.7-89.6-6.4c-42.3-8.3-79.8-26-113.7-50.5c-23.1-16.7-43.5-35.9-61.6-57.3c-22.8-27-42-56.1-57.1-87.4
			c-7.9-16.5-15.7-33-23.6-49.5c-1.3-2.8-3-5.5-5.1-7.8c-3-3.3-6.4-2.7-8.2,1.3c-1.9,4.2-1.6,8.5-0.1,12.7
			c2.7,7.5,5.4,14.9,8.2,22.3c12.1,32.2,26,63.7,42.8,94c20.1,36.3,43.9,70.4,72.8,101.3c16.6,17.7,34.4,34.3,54.6,48.4
			c28.6,20.1,59.8,35.3,94.1,45c15.7,4.5,31.6,7.7,47.8,9.5c-0.4,7.3-0.8,15-1.7,17.9c0,3.4,0,5.5,0,7.6
			c-0.5,20.5-0.9,41.1-1.5,61.6c-1.7,65.7-3.3,131.4-12,196.9c-6.1,46.1-14.6,92-32.5,136.9c-9.8,24.6-21.9,48.7-44.3,69.9
			c-11,10.3-24.1,19.2-43,23.4c-21.1,4.7-35.2,2.6-49.1-8.7c-7.6-6.1-14.8-12.8-19.5-20c-37.7-57.6-39.3-115.9-6-174.6
			c8.3-14.6,18.8-28.6,36.3-39.7c13.9-8.9,25.3-8.4,35.2,2.5c7.3,8,13.1,16.8,17.3,25.8c10.5,22.6,14.7,45.9,15.9,69.5
			c0.2,4.7,1,9.6,3.2,14.1c2.3,4.8,8.5,7.4,16.4,7.4c7.7-0.1,12.9-3.2,15-7.7c2-4.4,3.4-9.1,3.4-13.6c0-29-4.9-57.6-18.3-85.4
			c-8.7-18.1-20.3-35.4-40.3-49.6c-17.6-12.5-39-19.9-65.6-17.5c-21.9,2-39.3,9.9-54,20.5c-19.2,13.8-31.8,30.2-39.7,47.9
			c-27.2,61.4-22.5,122.2,11.4,182c15.3,26.9,38.3,50.8,73.6,68.7c57.8,29.3,127.8,24.8,175.6-11.4c27.5-20.8,44.9-45.2,57.8-71.1
			c24.1-48.4,33.6-98.5,38.9-149c4.3-40.6,6.4-81.3,9.5-122c4.7-61.2,8.5-122.4,2.1-183.7c33-4.4,63-15.3,89.7-34
			c17.3-12.1,31.5-26.7,41.9-44.5c11.4-19.6,16.9-40.9,20.1-62.7c0.7-4.7,1.1-9.4,1.6-14.1c0-7.3,0-14.6,0-21.9
			C1802.8,240.7,1802.6,239.9,1802.5,239.1z"/>
	</g>
</g>
</svg>
