<?xml version="1.0" encoding="utf-8"?>
<!-- Generator: Adobe Illustrator 28.1.0, SVG Export Plug-In . SVG Version: 6.00 Build 0)  -->
<svg version="1.1" xmlns="http://www.w3.org/2000/svg" xmlns:xlink="http://www.w3.org/1999/xlink" x="0px" y="0px"
	 viewBox="0 0 1920 1080" style="enable-background:new 0 0 1920 1080;" xml:space="preserve">
<style type="text/css">
	.st0{fill:#191C19;}
</style>
<g id="Layer_1">
	<g>
		<path class="st0" d="M1861,125.5v-21H140.6H58v871h82.6H1861v-21H186.4v-191H1861v-21H186.4v-192H1861v-21H186.4v-191H1861v-21
			H186.4v-192H1861z M158,954.5h-17.4v-191H158V954.5z M158,742.5h-17.4v-192H158V742.5z M158,529.5h-17.4v-191H158V529.5z
			 M158,317.5h-17.4v-192H158V317.5z"/>
	</g>
</g>
<g id="Layer_2">
	<path class="st0" d="M544.1,674.7c-9.8,139.5-70.6,236.4-144,197.5c-108.2-91-84.7-614.6,10.1-704.8
		c55.1-51.3,217.1,118.2,112.8,93.8c-68.2-29.5-92.8,176.1-36.5,229.2c57.2,82.5,132.9-69.6,112.1-182.6
		C567.4,96.6,425.9,64.7,321.2,143.2C178.2,299.7,172,812.7,332.3,953.3c82.6,76.1,241.6-55.6,211.8-276.9"/>
	<path class="st0" d="M1075.5,405.3c-10.9-139.5-78.5-236.4-160.2-197.5c-120.4,91-94.3,614.6,11.2,704.8
		c61.3,51.3,241.7-118.2,125.6-93.8c-75.9,29.5-103.3-176.1-40.6-229.2c63.7-82.5,148,69.6,124.7,182.5
		c-34.7,211.3-192.2,243.2-308.7,164.7c-159.2-156.5-166.1-669.5,12.4-810.1c92-76.1,269,55.6,235.8,276.9"/>
	<g>
		<path class="st0" d="M1802.5,239.1c-1.7-25.7-9.1-49.9-23.9-71.9c-9.1-13.6-20-25.7-33.7-35.5c-21.3-15.2-45.5-23.8-72.2-26.1
			c-25.2-2.1-49.2,2-71.7,13.2c-12.7,6.3-22.2,15.3-28.3,27.4c-7.7,15.3-9.2,31.3-5.4,47.7c5.2,22.4,18.7,38.2,42.5,45.8
			c14.7,4.7,29.8,5.4,45.1,3.2c12.2-1.8,23.9-4.9,33.4-12.8c16.5-13.6,24.4-30.7,22-51.2c-1.6-13-7.9-24.6-16.4-35
			c-1.7-2.1-3.5-4.2-5.5-6.6c1-0.1,1.5-0.2,2-0.2c10.7-0.6,20.8,1.8,30.5,5.9c14.4,6.1,25,16,33.7,27.9
			c18.7,25.4,26.3,53.3,22.5,83.9c-2.4,19.2-11.5,35-26.3,48.2c-16.8,14.9-36.9,24.1-59,29.6c-28.7,7.1-58,11-87.7,11.9
			c-30.1,0.9-60-0.7-89.6-6.4c-42.3-8.3-79.8-26-113.7-50.5c-23.1-16.7-43.5-35.9-61.6-57.3c-22.8-27-42-56.1-57.1-87.4
			c-7.9-16.5-15.7-33-23.6-49.5c-1.3-2.8-3-5.5-5.1-7.8c-3-3.3-6.4-2.7-8.2,1.3c-1.9,4.2-1.6,8.5-0.1,12.7
			c2.7,7.5,5.4,14.9,8.2,22.3c12.1,32.2,26,63.7,42.8,94c20.1,36.3,43.9,70.4,72.8,101.3c16.6,17.7,34.4,34.3,54.6,48.4
			c28.6,20.1,59.8,35.3,94.1,45c15.7,4.5,31.6,7.7,47.8,9.5c-0.4,7.3-0.8,15-1.7,17.9c0,3.4,0,5.5,0,7.6
			c-0.5,20.5-0.9,41.1-1.5,61.6c-1.7,65.7-3.3,131.4-12,196.9c-6.1,46.1-14.6,92-32.5,136.9c-9.8,24.6-21.9,48.7-44.3,69.9
			c-11,10.3-24.1,19.2-43,23.4c-21.1,4.7-35.2,2.6-49.1-8.7c-7.6-6.1-14.8-12.8-19.5-20c-37.7-57.6-39.3-115.9-6-174.6
			c8.3-14.6,18.8-28.6,36.3-39.7c13.9-8.9,25.3-8.4,35.2,2.5c7.3,8,13.1,16.8,17.3,25.8c10.5,22.6,14.7,45.9,15.9,69.5
			c0.2,4.7,1,9.6,3.2,14.1c2.3,4.8,8.5,7.4,16.4,7.4c7.7-0.1,12.9-3.2,15-7.7c2-4.4,3.4-9.1,3.4-13.6c0-29-4.9-57.6-18.3-85.4
			c-8.7-18.1-20.3-35.4-40.3-49.6c-17.6-12.5-39-19.9-65.6-17.5c-21.9,2-39.3,9.9-54,20.5c-19.2,13.8-31.8,30.2-39.7,47.9
			c-27.2,61.4-22.5,122.2,11.4,182c15.3,26.9,38.3,50.8,73.6,68.7c57.8,29.3,127.8,24.8,175.6-11.4c27.5-20.8,44.9-45.2,57.8-71.1
			c24.1-48.4,33.6-98.5,38.9-149c4.3-40.6,6.4-81.3,9.5-122c4.7-61.2,8.5-122.4,2.1-183.7c33-4.4,63-15.3,89.7-34
			c17.3-12.1,31.5-26.7,41.9-44.5c11.4-19.6,16.9-40.9,20.1-62.7c0.7-4.7,1.1-9.4,1.6-14.1c0-7.3,0-14.6,0-21.9
			C1802.8,240.7,1802.6,239.9,1802.5,239.1z"/>
	</g>
</g>
</svg>
