<?xml version="1.0" encoding="utf-8"?>
<!-- Generator: Adobe Illustrator 28.1.0, SVG Export Plug-In . SVG Version: 6.00 Build 0)  -->
<svg version="1.1" xmlns="http://www.w3.org/2000/svg" xmlns:xlink="http://www.w3.org/1999/xlink" x="0px" y="0px"
	 viewBox="0 0 1920 1080" style="enable-background:new 0 0 1920 1080;" xml:space="preserve">
<style type="text/css">
	.st0{fill:#191C19;}
	.st1{fill:#FFB9F4;}
	.st2{fill:#FFFFFF;stroke:#000000;stroke-width:0.4736;stroke-miterlimit:10;}
	.st3{fill:#393434;}
	.st4{fill:#333333;}
	.st5{fill:#757775;}
</style>
<g id="Layer_1">
	<g>
		<path class="st0" d="M270.7,249.9c0,0.6,0,1.2-0.1,1.8c0,0.2,0,0.4,0,0.6c-0.1,0.5-0.1,1.1-0.2,1.7c0,0.3-0.1,0.7-0.2,1
			c0,0.2-0.1,0.5-0.2,0.7c0,0.2-0.1,0.4-0.1,0.5c-1.3,4.9-4.2,9.2-8.1,12.4c2.2,3.4,3.7,7.3,4.4,11.4c0.3,1.8,0.5,3.6,0.5,5.4
			c0,0.2,0,0.4,0,0.6c-0.1,5.6-1.7,10.9-4.3,15.4c0,0,0,0,0,0c-0.1,1.5-0.3,3-0.7,4.4c-0.8,3.4-2.3,6.5-4.4,9.2
			c-4.3,5.7-11,9.4-18.7,9.9c-0.5,0-0.9,0-1.4,0h-0.1c-0.6,0-1.3,0-1.9-0.1c-8.4-0.6-15.7-5.3-19.8-12.2c-0.7-1.2-1.3-2.5-1.9-3.8
			c0,0,0,0,0,0c-1.3-1.2-2.5-2.4-3.6-3.8c-7.3,11.9-20.5,19.8-35.5,19.8c-23,0-41.6-18.5-41.6-41.4c0-22.9,18.6-41.4,41.6-41.4
			c8.2,0,15.9,2.4,22.4,6.5c1,0.6,1.9,1.2,2.8,1.9c0.5,0.4,1,0.8,1.5,1.2l0,0.1c0.7,0.5,1.3,1.1,1.9,1.7c0.1,0.1,0.2,0.2,0.3,0.3
			c-0.1,0.2-0.3,0.4-0.5,0.7c-0.3,0.3-0.7,0.6-1.2,0.8c-0.2,0.1-0.3,0.1-0.4,0.2v0c-0.1,0-0.2,0-0.4,0.1c0,0,0,0,0,0
			c0,0-0.1,0-0.1,0c-0.2,0.1-0.3,0.1-0.5,0.2c-0.1,0-0.3,0.1-0.4,0.1c-0.2,0-0.3,0.1-0.5,0.1c-0.2,0-0.4,0.1-0.6,0.1
			c-0.1,0-0.2,0-0.4,0c-0.3,0-0.7,0-1,0c-2.3,0-4.3-0.7-5.4-1.7c-5.1-3-11.1-4.8-17.5-4.8c-18.8,0-34.1,15.2-34.1,34
			c0,18.8,15.3,34,34.1,34c13.8,0,25.7-8.1,31.1-19.9c-1.6-3.8-2.4-7.9-2.4-12.2c0-0.5,0-0.9,0-1.4c0.3-6.4,2.4-12.2,5.9-17.1
			c3.5-4.8,8.3-8.7,14-10.9c-0.5-2-0.8-4-0.8-6.1c0-5.9,2.1-11.2,5.6-15.4l-0.2-4l-0.3-7.1l6.3,3.2l2.6,1.3
			c3.1-1.4,6.6-2.2,10.2-2.2c2.7,0,5.3,0.5,7.7,1.3l5.5-1.5l6.9-1.9l-1.8,6.9l-0.7,2.8C268.2,237.7,270.7,243.5,270.7,249.9z"/>
		<polygon class="st1" points="257.2,248.1 259.5,252 261.7,256 257.2,256 252.6,256 254.9,252 		"/>
		<path class="st0" d="M260.8,315h-23.6v10h23.6c3.6,0,6.6-2.2,6.6-5C267.3,317.2,264.4,315,260.8,315z"/>
		<path class="st2" d="M253.8,247.4c0,0.1-2.1-1.5-4.2-1.5c-2.3,0-4.2,1-4.2,2.2c0,0.1-0.2-0.4-0.2-0.7c0-1.5,1.9-2.8,4.3-2.8
			S253.8,245.9,253.8,247.4z"/>
		<path class="st2" d="M259.5,247.4c0,0.1,2.1-1.5,4.2-1.5c2.3,0,4.2,1,4.2,2.2c0,0.1,0.2-0.4,0.2-0.7c0-1.5-1.9-2.8-4.3-2.8
			S259.5,245.9,259.5,247.4z"/>
		<path class="st0" d="M272.5,280c-0.1,0-0.2,0-0.4,0v0h-21v6h21v0c0.1,0,0.2,0,0.4,0c4.9,0,8.8-1.3,8.8-3
			C281.3,281.3,277.4,280,272.5,280z"/>
		<rect x="265.2" y="254" class="st3" width="11" height="1"/>
		<polygon class="st3" points="275.8,251.2 264.7,252.3 264.8,252.9 275.8,251.8 		"/>
		<polygon class="st3" points="275.8,256.5 264.9,254.8 264.8,255.4 275.7,257.1 		"/>
		
			<rect x="238.2" y="253" transform="matrix(-1 -8.011826e-11 8.011826e-11 -1 487.3142 506.9029)" class="st3" width="11" height="1"/>
		<polygon class="st3" points="238.5,250.8 249.5,251.9 249.5,252.4 238.4,251.3 		"/>
		<polygon class="st3" points="238.5,256.1 249.4,254.4 249.5,254.9 238.5,256.6 		"/>
	</g>
	<g>
		<path class="st4" d="M236.8,278.3c8.6,0,16,5.1,19.4,12.4h4.1c-3.6-9.5-12.8-16.2-23.5-16.2c-10.7,0-19.9,6.7-23.5,16.2h4.1
			C220.8,283.3,228.2,278.3,236.8,278.3z"/>
		<path class="st4" d="M257.9,303.2h-8.5v1.3v0.3v2.5h7.4c-3.1,8-10.9,13.8-20,13.8c-8.3,0-15.5-4.8-19.1-11.7h-4.2
			c3.8,9.1,12.8,15.5,23.3,15.5c11.3,0,20.8-7.4,24-17.6c0.4-1.3,0.7-2.7,0.9-4.1H257.9z"/>
	</g>
</g>
<g id="Layer_2">
	<path class="st0" d="M277.2,259.1V258h-5v1.2v9.6v1.2h5v-1.2c3.5-0.6,6.1-2.5,6.1-4.8C283.3,261.7,280.7,259.7,277.2,259.1z"/>
	<path class="st5" d="M1127.6,912.2v7.5h11.5c-5.5,8.6-15.1,14.4-26.1,14.4c-17.1,0-30.9-13.8-30.9-30.9c0-17.1,13.8-30.9,30.9-30.9
		c14.1,0,26,9.5,29.7,22.4h9.8c-3.9-18.2-20.1-31.9-39.5-31.9c-22.3,0-40.4,18.1-40.4,40.4c0,22.3,18.1,40.4,40.4,40.4
		c12.4,0,23.5-5.6,30.9-14.4c2.4-2.9,4.4-6.1,6-9.5c0.8-1.7,1.4-3.5,2-5.3h0.2v-0.7h0c0.1-0.5,0.3-1,0.4-1.5H1127.6z"/>
	<g>
		<rect x="296.2" y="257" class="st0" width="3.3" height="1"/>
		<rect x="301.2" y="257" class="st0" width="3.2" height="1"/>
		<polygon class="st0" points="309.2,258 309.2,257 306,257 306,257 306,258 306,258 		"/>
		<path class="st0" d="M330.2,247.7c-3.6,7.5-9.8,12.7-16.9,13.2h-2.1h-1.9v-1h-0.1H306h-0.1v1h-1.6v-1h-3.2H301v1h-1.4v-1h-0.1
			h-3.3v1h-2h-13v6h10.2c-0.1,0.6-0.2,1.2-0.2,1.8v2.5c0,3.4,2.1,6.3,5,7.3v0.2h0v1.2v1.5h3.3V280v-1.2h1.5v2.7h3.3v-2.7h1.5h0.1
			v1.2v1.4h3.3v-2.8c2.9-1,4.9-4,4.9-7.5v-2.2c0-0.7-0.1-1.3-0.2-1.9h0c6.9,1,12.8,6.1,16.2,13.5c0.7,1.5,2.9,1,2.9-0.6v-31.5
			C333.2,246.7,330.9,246.2,330.2,247.7z M292.4,270.2c0-1.1,0.2-2.2,0.6-3.2h1.2h2v10.3C293.9,276,292.4,273.3,292.4,270.2z
			 M299.5,277.4V267h1.5v10.5H299.5z M305.8,277.4h-1.5V267h1.6L305.8,277.4L305.8,277.4z M309.2,277.1V267h1.9h1
			c0.4,1,0.6,2.1,0.6,3.2C312.7,273.2,311.3,275.8,309.2,277.1z"/>
	</g>
</g>
</svg>
