<?xml version="1.0" encoding="utf-8"?>
<!-- Generator: Adobe Illustrator 28.3.0, SVG Export Plug-In . SVG Version: 6.00 Build 0)  -->
<svg version="1.1" xmlns="http://www.w3.org/2000/svg" xmlns:xlink="http://www.w3.org/1999/xlink" x="0px" y="0px"
	 viewBox="0 0 137.9 70.3" style="enable-background:new 0 0 137.9 70.3;" xml:space="preserve">
<style type="text/css">
	.st0{fill:#191C19;}
	.st1{fill:#FFB9F4;}
	.st2{fill:#FFFFFF;}
	.st3{fill:#333333;}
</style>
<g id="Layer_1">
</g>
<g id="Layer_2">
	<path class="st0" d="M100.1,39.4h-8.6c-0.5-2.9-1.6-5.5-3-7.9c3.9-3,6.4-7.7,6.4-13c0-4.2-1.6-8-4.2-10.9l1.1-7.5L84,3.1
		c-1.7-0.6-3.6-1-5.5-1c-2.5,0-4.8,0.6-6.9,1.5L65.2,0v9c-1.9,2.7-3.1,6-3.1,9.6c0,1.4,0.2,2.8,0.5,4.1c-4.8,1.7-8.9,5.1-11.5,9.4
		c0,0,0,0-0.2,0.3c-1.9,3.2-2.9,6.9-2.9,10.9c0,3.4,0.8,6.6,2.1,9.4c-4,7.9-12.2,13.3-21.7,13.3C15,65.9,4.1,55.1,4.1,41.6
		c0-13.4,10.9-24.3,24.3-24.3c5.8,0,11.1,2,15.3,5.4h6c-5.2-5.9-12.8-9.6-21.3-9.6C12.8,13.1,0,25.9,0,41.6
		c0,15.7,12.8,28.5,28.5,28.5c10.2,0,19.2-5.4,24.2-13.4c0.9,1.2,2,2.3,3.1,3.3c2.6,6.1,8.6,10.4,15.7,10.4c0.1,0,0.2,0,0.2,0h18.5
		c1.8,0,3.3-1.5,3.3-3.3s-1.5-3.3-3.3-3.3h-5.3c1.9-2.5,3.2-5.5,3.5-8.8c2.1-3.3,3.4-7.3,3.4-11.6h8.3c1.1,0,2-0.9,2-2
		S101.2,39.4,100.1,39.4z"/>
	<g>
		<g>
			<path class="st0" d="M137.9,19.1v-2.8h-2.1v0.8l-4.9,6l-5.5,3.2h-1.4h-1.3h-1.3v-0.9h-2v0.9h-1.5v-0.9h-2v0.9h-1.5v-0.9h-2v0.9
				h-1.3h-1.3h-7.9c-0.6-0.9-1.6-1.5-2.8-1.5c-0.1,0-0.2,0-0.3,0v-0.6h-3v8.1h3v-0.9c0.1,0,0.2,0,0.3,0c1,0,1.9-0.5,2.5-1.2h6.7
				c0,0.2,0,0.4,0,0.6c0,3,1.6,5.7,4,7.2v2.1h2v-1.3c0.5,0.1,1,0.2,1.5,0.3v1h2v-1c0.5,0,1-0.1,1.5-0.3v1.3h2v-2.1
				c2.4-1.5,4.1-4.2,4.1-7.2c0-0.2,0-0.4,0-0.6h0.2l4.9,2.8l5.4,6.6v0.5h2.1v-12V19.1L137.9,19.1z M109.8,30.5L109.8,30.5l2.7-0.1
				v5.6C110.8,34.8,109.8,32.8,109.8,30.5z M114.4,37.2v-6.7h1.5v7.1C115.3,37.5,114.8,37.3,114.4,37.2z M117.8,37.5v-7.1h1.5v6.7
				C118.8,37.3,118.3,37.5,117.8,37.5z M123.9,30.5c0,2.2-1,4.3-2.7,5.6v-5.6L123.9,30.5L123.9,30.5z M135.7,36.5l-0.2-0.2l0.2,0.1
				V36.5z"/>
			<polygon class="st0" points="121.2,24.4 121.2,23.8 121.2,23.4 120.5,23.4 119.3,23.4 119.3,23.9 119.3,24.4 120.4,24.4 			"/>
			<polygon class="st0" points="114.4,24.4 114.4,23.9 114.4,23.4 113.2,23.4 112.4,23.4 112.4,23.8 112.4,24.4 113.3,24.4 			"/>
			<polygon class="st0" points="117.8,23.5 117.8,23.4 115.8,23.4 115.8,23.5 115.8,24.4 117.8,24.4 			"/>
		</g>
	</g>
</g>
<g id="Layer_3">
	<polygon class="st1" points="85.5,17.7 82.6,22.6 88.3,22.6 	"/>
	<path class="st2" d="M83.1,16.6h-1.4c-0.4-0.5-1-0.9-1.7-0.9c-0.7,0-1.3,0.3-1.7,0.9h-1.4c0.4-1.3,1.7-2.3,3.1-2.3
		C81.5,14.3,82.7,15.3,83.1,16.6z"/>
	<path class="st2" d="M90,14.3c-1.5,0-2.7,1-3.2,2.3h1.4c0.4-0.5,1-0.9,1.7-0.9s1.3,0.3,1.7,0.9h1.4C92.7,15.3,91.4,14.3,90,14.3z"
		/>
	<rect x="90.7" y="19.5" class="st3" width="7.7" height="0.9"/>
	<rect x="91.1" y="21.4" class="st3" width="7.7" height="0.9"/>
	<rect x="72.6" y="20.1" class="st3" width="7.7" height="0.9"/>
	<rect x="71.9" y="22" class="st3" width="7.7" height="0.9"/>
	<g>
		<g>
			<path class="st3" d="M87.5,54.9h-1.6h-6.1v3h5.3c-2.1,5.6-7.5,9.5-13.8,9.5c-5.8,0-10.9-3.4-13.3-8.3h-2.9
				c2.5,6.5,8.8,11,16.2,11c8.9,0,16.2-6.6,17.2-15.2H87.5z"/>
			<path class="st3" d="M71.3,37.9c5.9,0,11,3.5,13.4,8.5h2.8C85,40,78.7,35.4,71.3,35.4S57.7,40,55.2,46.4H58
				C60.3,41.4,65.4,37.9,71.3,37.9z"/>
		</g>
	</g>
</g>
</svg>
