<?xml version="1.0" standalone="no"?>
<!DOCTYPE svg PUBLIC "-//W3C//DTD SVG 20010904//EN"
 "http://www.w3.org/TR/2001/REC-SVG-20010904/DTD/svg10.dtd">
<svg version="1.0" xmlns="http://www.w3.org/2000/svg"
 width="512.000000pt" height="512.000000pt" viewBox="0 0 512.000000 512.000000"
 preserveAspectRatio="xMidYMid meet">
<metadata>
Created by potrace 1.14, written by Peter Selinger 2001-2017
</metadata>
<g transform="translate(0.000000,512.000000) scale(0.100000,-0.100000)"
fill="#000000" stroke="none">
<path d="M1055 5003 c-63 -14 -172 -100 -203 -159 -43 -82 -41 11 -41 -2287 0
-1564 3 -2185 11 -2205 28 -71 46 -100 84 -140 23 -23 46 -42 51 -42 6 0 16
-7 23 -15 7 -8 21 -15 30 -15 10 0 20 -6 23 -12 5 -18 3044 -19 3055 -2 4 6
18 15 31 19 28 9 42 19 85 61 48 49 76 97 92 159 10 39 10 4351 0 4390 -8 32
-35 91 -51 113 -26 35 -73 82 -84 82 -6 0 -11 4 -11 9 0 5 -12 12 -27 16 -15
3 -31 12 -35 18 -6 9 -374 12 -1510 13 -827 1 -1512 0 -1523 -3z m2308 -178
c-3 -9 -8 -14 -10 -11 -3 3 -2 9 2 15 9 16 15 13 8 -4z m-368 -1504 c-3 -20
-18 -54 -33 -75 -15 -22 -34 -51 -43 -65 -20 -34 -95 -46 -236 -40 -12 1 -33
-7 -47 -17 -20 -15 -25 -28 -26 -59 0 -48 14 -65 52 -65 15 0 28 -4 28 -10 0
-20 39 -10 58 15 25 32 28 32 36 -7 3 -17 11 -37 17 -45 17 -19 47 -16 59 7
12 22 67 28 100 10 22 -12 50 -3 50 16 0 8 5 14 10 14 6 0 10 14 10 30 0 24 4
30 21 30 11 0 33 9 47 21 l27 21 3 -27 c4 -28 -12 -55 -33 -55 -19 0 -53 -42
-37 -47 22 -8 13 -41 -13 -47 -34 -9 -65 -41 -65 -68 0 -11 12 -36 26 -55 25
-33 25 -35 8 -54 -17 -18 -17 -20 1 -32 14 -11 15 -17 6 -35 -6 -11 -11 -30
-11 -41 0 -11 -6 -24 -12 -28 -29 -18 -50 -83 -28 -83 6 0 10 -9 10 -20 0 -12
7 -32 16 -45 32 -50 134 -19 134 41 0 12 7 27 15 34 13 11 15 9 15 -13 0 -13
7 -38 15 -53 14 -27 14 -30 -5 -44 -12 -8 -39 -30 -61 -47 -23 -18 -45 -33
-49 -33 -5 0 -12 -10 -16 -22 -10 -33 -34 -58 -57 -58 -38 0 -57 -29 -57 -87
0 -42 -4 -55 -17 -59 -81 -25 -145 -78 -155 -129 -5 -28 -57 -23 -84 8 -28 33
-56 47 -91 47 -30 -1 -63 -20 -63 -37 0 -31 -74 -48 -91 -21 -3 5 -24 12 -45
15 -29 4 -43 1 -53 -11 -7 -9 -26 -16 -41 -16 -22 0 -29 5 -33 29 -4 17 -20
40 -39 54 -34 26 -138 57 -189 57 -19 0 -29 5 -29 15 0 8 7 15 15 15 17 0 35
30 35 61 0 31 -38 89 -59 89 -33 0 -123 103 -104 119 4 4 27 13 51 20 56 16
80 64 63 129 -6 23 -11 54 -11 67 0 18 -7 28 -25 35 -32 12 -32 35 1 56 35 24
30 68 -8 72 -24 3 -28 8 -28 37 0 19 -5 37 -10 40 -19 12 0 25 20 15 11 -6 29
-14 40 -20 36 -18 64 -11 94 24 24 30 31 33 47 23 14 -9 21 -8 31 2 10 11 10
14 1 18 -7 3 -13 19 -13 37 0 20 -8 40 -20 51 -29 26 -26 55 5 55 21 0 34 13
67 65 43 70 60 77 68 29 4 -23 11 -30 33 -32 21 -3 27 -9 27 -27 0 -15 -7 -26
-20 -30 -11 -3 -20 -13 -20 -21 0 -18 65 -47 88 -39 21 6 62 68 62 92 1 34 25
53 69 53 22 0 41 -4 41 -10 0 -5 9 -10 20 -10 11 0 20 5 20 10 0 6 9 10 20 10
11 0 28 10 38 21 9 12 22 26 28 33 5 6 13 19 17 28 5 14 15 16 58 11 44 -5 54
-3 66 13 10 14 24 18 62 16 46 -2 51 1 82 37 40 45 53 43 44 -8z m185 -628 c0
-16 -25 -73 -32 -73 -11 0 -10 38 2 61 10 18 30 26 30 12z m563 -2418 c-3 -9
-8 -14 -10 -11 -3 3 -2 9 2 15 9 16 15 13 8 -4z"/>
<path d="M2370 2928 c-14 -6 -47 -21 -75 -34 -59 -27 -158 -127 -181 -184 -3
-8 -13 -31 -22 -50 -10 -23 -15 -65 -15 -130 1 -87 4 -101 34 -165 75 -160
232 -253 412 -243 45 2 91 9 102 15 11 5 42 21 69 34 107 53 179 153 210 292
14 60 15 85 7 109 -6 17 -11 40 -11 52 0 39 -57 143 -106 192 -56 56 -107 94
-127 94 -7 0 -19 6 -25 13 -17 16 -238 21 -272 5z"/>
<path d="M4158 83 c7 -3 16 -2 19 1 4 3 -2 6 -13 5 -11 0 -14 -3 -6 -6z"/>
</g>
</svg>
